<mxfile host="app.diagrams.net" modified="2021-07-07T08:52:29.852Z" agent="5.0 (Macintosh; Intel Mac OS X 10_15_7) AppleWebKit/537.36 (KHTML, like Gecko) Chrome/91.0.4472.114 Safari/537.36" etag="ccwb5PJAp1EPRQc6uA0I" version="14.8.4" type="github">
  <diagram id="VGdXcaExe3mI15eVK5ey" name="Page-1">
    <mxGraphModel dx="1186" dy="1796" grid="1" gridSize="10" guides="1" tooltips="1" connect="1" arrows="1" fold="1" page="1" pageScale="1" pageWidth="850" pageHeight="1100" math="0" shadow="0">
      <root>
        <mxCell id="0" />
        <mxCell id="1" parent="0" />
        <mxCell id="9SjqFFrR-uVKLUZFvIpg-6" style="edgeStyle=orthogonalEdgeStyle;rounded=0;orthogonalLoop=1;jettySize=auto;html=1;entryX=0;entryY=0;entryDx=0;entryDy=0;" edge="1" parent="1" source="9SjqFFrR-uVKLUZFvIpg-1" target="9SjqFFrR-uVKLUZFvIpg-5">
          <mxGeometry relative="1" as="geometry" />
        </mxCell>
        <mxCell id="9SjqFFrR-uVKLUZFvIpg-11" style="edgeStyle=orthogonalEdgeStyle;rounded=0;orthogonalLoop=1;jettySize=auto;html=1;entryX=0;entryY=0.625;entryDx=0;entryDy=0;entryPerimeter=0;" edge="1" parent="1" source="9SjqFFrR-uVKLUZFvIpg-1" target="9SjqFFrR-uVKLUZFvIpg-10">
          <mxGeometry relative="1" as="geometry" />
        </mxCell>
        <mxCell id="9SjqFFrR-uVKLUZFvIpg-18" style="edgeStyle=orthogonalEdgeStyle;rounded=0;orthogonalLoop=1;jettySize=auto;html=1;entryX=0.508;entryY=0.125;entryDx=0;entryDy=0;entryPerimeter=0;" edge="1" parent="1" source="9SjqFFrR-uVKLUZFvIpg-1" target="9SjqFFrR-uVKLUZFvIpg-17">
          <mxGeometry relative="1" as="geometry" />
        </mxCell>
        <mxCell id="9SjqFFrR-uVKLUZFvIpg-26" style="edgeStyle=orthogonalEdgeStyle;rounded=0;orthogonalLoop=1;jettySize=auto;html=1;entryX=0.625;entryY=0.2;entryDx=0;entryDy=0;entryPerimeter=0;" edge="1" parent="1" source="9SjqFFrR-uVKLUZFvIpg-1" target="9SjqFFrR-uVKLUZFvIpg-19">
          <mxGeometry relative="1" as="geometry" />
        </mxCell>
        <mxCell id="9SjqFFrR-uVKLUZFvIpg-1" value="user 1" style="ellipse;whiteSpace=wrap;html=1;aspect=fixed;" vertex="1" parent="1">
          <mxGeometry x="140" y="130" width="80" height="80" as="geometry" />
        </mxCell>
        <mxCell id="9SjqFFrR-uVKLUZFvIpg-7" style="edgeStyle=orthogonalEdgeStyle;rounded=0;orthogonalLoop=1;jettySize=auto;html=1;" edge="1" parent="1" source="9SjqFFrR-uVKLUZFvIpg-2" target="9SjqFFrR-uVKLUZFvIpg-5">
          <mxGeometry relative="1" as="geometry" />
        </mxCell>
        <mxCell id="9SjqFFrR-uVKLUZFvIpg-12" style="edgeStyle=orthogonalEdgeStyle;rounded=0;orthogonalLoop=1;jettySize=auto;html=1;exitX=0.5;exitY=1;exitDx=0;exitDy=0;entryX=0.258;entryY=0.05;entryDx=0;entryDy=0;entryPerimeter=0;" edge="1" parent="1" source="9SjqFFrR-uVKLUZFvIpg-2" target="9SjqFFrR-uVKLUZFvIpg-10">
          <mxGeometry relative="1" as="geometry" />
        </mxCell>
        <mxCell id="9SjqFFrR-uVKLUZFvIpg-22" style="edgeStyle=orthogonalEdgeStyle;rounded=0;orthogonalLoop=1;jettySize=auto;html=1;entryX=0.5;entryY=0.05;entryDx=0;entryDy=0;entryPerimeter=0;" edge="1" parent="1" source="9SjqFFrR-uVKLUZFvIpg-2" target="9SjqFFrR-uVKLUZFvIpg-21">
          <mxGeometry relative="1" as="geometry" />
        </mxCell>
        <mxCell id="9SjqFFrR-uVKLUZFvIpg-2" value="User 2" style="ellipse;whiteSpace=wrap;html=1;aspect=fixed;" vertex="1" parent="1">
          <mxGeometry x="380" y="180" width="80" height="80" as="geometry" />
        </mxCell>
        <mxCell id="9SjqFFrR-uVKLUZFvIpg-9" style="edgeStyle=orthogonalEdgeStyle;rounded=0;orthogonalLoop=1;jettySize=auto;html=1;" edge="1" parent="1" source="9SjqFFrR-uVKLUZFvIpg-3" target="9SjqFFrR-uVKLUZFvIpg-8">
          <mxGeometry relative="1" as="geometry" />
        </mxCell>
        <mxCell id="9SjqFFrR-uVKLUZFvIpg-13" style="edgeStyle=orthogonalEdgeStyle;rounded=0;orthogonalLoop=1;jettySize=auto;html=1;exitX=0.5;exitY=1;exitDx=0;exitDy=0;entryX=0.5;entryY=0;entryDx=0;entryDy=0;" edge="1" parent="1" source="9SjqFFrR-uVKLUZFvIpg-3" target="9SjqFFrR-uVKLUZFvIpg-10">
          <mxGeometry relative="1" as="geometry" />
        </mxCell>
        <mxCell id="9SjqFFrR-uVKLUZFvIpg-27" style="edgeStyle=orthogonalEdgeStyle;rounded=0;orthogonalLoop=1;jettySize=auto;html=1;" edge="1" parent="1" source="9SjqFFrR-uVKLUZFvIpg-3" target="9SjqFFrR-uVKLUZFvIpg-23">
          <mxGeometry relative="1" as="geometry" />
        </mxCell>
        <mxCell id="9SjqFFrR-uVKLUZFvIpg-28" style="edgeStyle=orthogonalEdgeStyle;rounded=0;orthogonalLoop=1;jettySize=auto;html=1;" edge="1" parent="1" source="9SjqFFrR-uVKLUZFvIpg-3" target="9SjqFFrR-uVKLUZFvIpg-24">
          <mxGeometry relative="1" as="geometry" />
        </mxCell>
        <mxCell id="9SjqFFrR-uVKLUZFvIpg-3" value="User 3" style="ellipse;whiteSpace=wrap;html=1;aspect=fixed;" vertex="1" parent="1">
          <mxGeometry x="560" y="160" width="80" height="80" as="geometry" />
        </mxCell>
        <mxCell id="9SjqFFrR-uVKLUZFvIpg-5" value="Phòng 1&amp;nbsp;" style="rhombus;whiteSpace=wrap;html=1;" vertex="1" parent="1">
          <mxGeometry x="230" y="180" width="80" height="80" as="geometry" />
        </mxCell>
        <mxCell id="9SjqFFrR-uVKLUZFvIpg-8" value="Phòng 2" style="rhombus;whiteSpace=wrap;html=1;" vertex="1" parent="1">
          <mxGeometry x="610" y="40" width="80" height="80" as="geometry" />
        </mxCell>
        <mxCell id="9SjqFFrR-uVKLUZFvIpg-10" value="Nhóm 1" style="ellipse;whiteSpace=wrap;html=1;" vertex="1" parent="1">
          <mxGeometry x="350" y="10" width="120" height="80" as="geometry" />
        </mxCell>
        <mxCell id="9SjqFFrR-uVKLUZFvIpg-17" value="Ticket 1" style="ellipse;shape=cloud;whiteSpace=wrap;html=1;" vertex="1" parent="1">
          <mxGeometry x="30" y="360" width="120" height="80" as="geometry" />
        </mxCell>
        <mxCell id="9SjqFFrR-uVKLUZFvIpg-19" value="Ticket 2" style="ellipse;shape=cloud;whiteSpace=wrap;html=1;" vertex="1" parent="1">
          <mxGeometry x="190" y="360" width="120" height="80" as="geometry" />
        </mxCell>
        <mxCell id="9SjqFFrR-uVKLUZFvIpg-21" value="Ticket 3&lt;br&gt;" style="ellipse;shape=cloud;whiteSpace=wrap;html=1;" vertex="1" parent="1">
          <mxGeometry x="360" y="360" width="120" height="80" as="geometry" />
        </mxCell>
        <mxCell id="9SjqFFrR-uVKLUZFvIpg-23" value="Ticket 4" style="ellipse;shape=cloud;whiteSpace=wrap;html=1;" vertex="1" parent="1">
          <mxGeometry x="530" y="360" width="120" height="80" as="geometry" />
        </mxCell>
        <mxCell id="9SjqFFrR-uVKLUZFvIpg-24" value="Ticket 5&lt;br&gt;" style="ellipse;shape=cloud;whiteSpace=wrap;html=1;" vertex="1" parent="1">
          <mxGeometry x="700" y="360" width="120" height="80" as="geometry" />
        </mxCell>
      </root>
    </mxGraphModel>
  </diagram>
</mxfile>
